<svg width="56" height="53" viewBox="0 0 56 53" fill="none" xmlns="http://www.w3.org/2000/svg">
<path d="M50.6487 28.064L53.5086 27.7185C54.929 27.547 56 26.3388 56 24.9082C56 23.3473 54.73 22.0774 53.1692 22.0774H51.177C49.9595 22.0774 48.9192 22.85 48.5204 23.9306L45.9492 18.3011C45.9426 18.2869 45.936 18.273 45.9288 18.2592L45.7339 17.8316C44.7002 15.5663 42.6341 13.8819 40.207 13.3259C40.0943 13.3001 39.9715 13.275 39.8407 13.2503C39.7375 10.4688 38.6659 7.81953 36.7934 5.74832C36.3969 5.30962 35.7197 5.27547 35.2809 5.67205C34.8421 6.06863 34.808 6.74591 35.2047 7.18461C36.8195 8.97108 37.7091 11.2825 37.7091 13.6932C37.7091 19.0469 33.3537 23.4024 27.9999 23.4024C22.6461 23.4024 18.2905 19.0469 18.2905 13.6932C18.2905 9.45452 21.0219 5.84387 24.8161 4.52276L24.3998 4.84937C23.9345 5.21443 23.8531 5.88754 24.2182 6.35289C24.4294 6.62216 24.7439 6.76292 25.0615 6.76292C25.2927 6.76292 25.5257 6.68832 25.7218 6.53459L29.2176 3.79218C29.5104 3.56241 29.663 3.19724 29.6206 2.82743C29.5781 2.45774 29.3467 2.13647 29.0094 1.97917L24.9827 0.100606C24.4471 -0.149266 23.8098 0.0822822 23.5595 0.618318C23.3094 1.15424 23.5413 1.79153 24.0774 2.04152L24.6716 2.31876C19.8876 3.7209 16.3494 8.06535 16.1578 13.2507C16.0271 13.2753 15.9044 13.3004 15.7919 13.3261C13.3651 13.8824 11.299 15.5668 10.2652 17.8323L7.47904 23.9298C7.07984 22.8497 6.03978 22.0776 4.82278 22.0776H2.83082C1.26995 22.0774 0 23.3472 0 24.9082C0 26.3389 1.07112 27.5471 2.49135 27.7185L5.3512 28.064L2.61581 30.7993C1.28625 32.129 0.650025 34.0342 0.914057 35.8959L1.84965 42.4923C2.09012 44.1878 2.96908 45.6663 4.21892 46.6997V49.6958C4.21892 51.4777 5.66866 52.9275 7.4506 52.9275H12.8098C14.5918 52.9275 16.0415 51.4777 16.0415 49.6958V48.2407H39.9589V49.6958C39.9589 51.4777 41.4086 52.9275 43.1906 52.9275H48.5483C50.3304 52.9275 51.78 51.4777 51.78 49.6958V46.7002C53.0301 45.6668 53.9093 44.188 54.1497 42.4923L55.0853 35.8958C55.3494 34.034 54.7132 32.1287 53.3836 30.7991L50.6487 28.064ZM47.529 46.0989H8.47104C6.30643 46.0989 4.43417 44.5438 4.01402 42.4421H51.9859C51.5658 44.5438 49.6936 46.0989 47.529 46.0989ZM40.6163 36.816L41.7049 40.3005H40.2216L39.133 36.816H40.6163ZM36.8892 36.816L37.9778 40.3005H18.0218L19.1104 36.816H36.8892ZM15.7778 40.3003H14.2951L15.3836 36.8159H16.8664L15.7778 40.3003ZM12.0512 40.3003H3.70228L3.20801 36.8159H13.1397L12.0512 40.3003ZM43.9489 40.3003L42.8603 36.8159H52.792L52.2977 40.3003H43.9489ZM50.4879 24.9081C50.4879 24.5281 50.7971 24.219 51.177 24.219H53.1692C53.5491 24.219 53.8582 24.5281 53.8582 24.9081C53.8582 25.2563 53.5975 25.5504 53.2518 25.5921L50.4878 25.9259V24.9081H50.4879ZM42.2068 16.6535C41.5455 16.5389 40.6566 16.4373 39.5505 16.3498C39.6213 16.0419 39.6795 15.7293 39.7258 15.4128C39.7269 15.413 39.7279 15.4133 39.729 15.4135C40.6484 15.6241 41.4962 16.0568 42.2068 16.6535ZM16.2704 15.4135C16.2716 15.4133 16.2729 15.4129 16.2742 15.4127C16.3204 15.7291 16.3785 16.0416 16.4493 16.3495C15.3404 16.4376 14.4516 16.5395 13.793 16.6537C14.5034 16.057 15.3511 15.6242 16.2704 15.4135ZM11.8494 19.5201C12.5115 19.1846 13.2278 18.9411 13.9842 18.7956C14.6637 18.6646 15.748 18.5448 17.1447 18.4452C18.9797 22.6205 23.1546 25.5441 28 25.5441C32.8453 25.5441 37.0199 22.6208 38.8549 18.4458C40.2484 18.5443 41.3332 18.664 42.0169 18.7957C42.7726 18.9411 43.4889 19.1848 44.1516 19.5208L47.4611 26.7645H8.53969L11.8494 19.5201ZM2.14176 24.9081C2.14176 24.5281 2.45089 24.219 2.83082 24.219H4.82302C5.20294 24.219 5.51207 24.5281 5.51207 24.9081V25.926L2.74812 25.5922C2.40246 25.5505 2.14176 25.2563 2.14176 24.9081ZM7.53794 28.9063H48.4621L51.8695 32.3138C52.5061 32.9503 52.8952 33.7919 52.9832 34.6743H3.01679C3.10496 33.7919 3.49405 32.9503 4.13051 32.3138L7.53794 28.9063ZM13.8999 49.6959C13.8999 50.2969 13.411 50.7858 12.81 50.7858H7.45084C6.84984 50.7858 6.36092 50.2969 6.36092 49.6959V47.8947C7.02772 48.1191 7.73796 48.2408 8.47104 48.2408H13.8999V49.6959ZM49.6386 49.6959C49.6386 50.2969 49.1497 50.7858 48.5487 50.7858H43.1909C42.5899 50.7858 42.101 50.2969 42.101 49.6959V48.2408H47.5291C48.262 48.2408 48.972 48.1192 49.6386 47.8949V49.6959Z" fill="url(#paint0_linear)"/>
<path d="M25.6185 18.2158H23.8232V13.3005L23.8406 12.493L23.8696 11.6099C23.5715 11.9081 23.3642 12.1038 23.248 12.1967L22.272 12.9811L21.4062 11.9004L24.1427 9.72168H25.6185V18.2158ZM31.0681 12.7894C31.8892 12.7894 32.5419 13.0197 33.026 13.4807C33.5141 13.9416 33.7582 14.573 33.7582 15.3747C33.7582 16.3236 33.4657 17.0537 32.8809 17.565C32.2959 18.0763 31.4593 18.332 30.371 18.332C29.4258 18.332 28.6629 18.179 28.0819 17.873V16.3217C28.3878 16.4844 28.7442 16.618 29.1509 16.7226C29.5576 16.8234 29.943 16.8737 30.3071 16.8737C31.4032 16.8737 31.9512 16.4244 31.9512 15.5258C31.9512 14.6698 31.3838 14.2418 30.249 14.2418C30.0436 14.2418 29.8171 14.2631 29.5692 14.3057C29.3213 14.3444 29.1199 14.387 28.965 14.4335L28.2504 14.05L28.5699 9.72168H33.1771V11.2439H30.1444L29.9875 12.9113L30.1908 12.8706C30.4271 12.8164 30.7196 12.7894 31.0681 12.7894Z" fill="url(#paint1_linear)"/>
<defs>
<linearGradient id="paint0_linear" x1="28" y1="0" x2="28" y2="52.9275" gradientUnits="userSpaceOnUse">
<stop stop-color="#FAD586"/>
<stop offset="1" stop-color="#FFC74F"/>
</linearGradient>
<linearGradient id="paint1_linear" x1="27.5822" y1="9.72168" x2="27.5822" y2="18.332" gradientUnits="userSpaceOnUse">
<stop stop-color="#FAD586"/>
<stop offset="1" stop-color="#FFC74F"/>
</linearGradient>
</defs>
</svg>
