<svg width="57" height="69" viewBox="0 0 57 69" fill="none" xmlns="http://www.w3.org/2000/svg">
<g clip-path="url(#clip0)">
<path d="M55.4936 37.1459H51.9065C51.9436 36.9396 51.964 36.7275 51.964 36.5106V33.7915C53.1727 32.7275 54.018 31.2462 54.2564 29.5584L55.163 23.1373C55.4375 21.1932 54.7762 19.2037 53.3939 17.8153L51.3591 15.7714L53.2659 15.5401C54.855 15.3473 56.0531 13.9895 56.0531 12.3818C56.0531 10.6276 54.6323 9.20061 52.8861 9.20061H50.9554C49.9166 9.20061 48.9958 9.70792 48.4179 10.4865L46.0664 5.31606C45.01 2.99192 42.8992 1.26349 40.4198 0.692569C36.4077 -0.231019 20.5824 -0.231019 16.5701 0.692569C14.0909 1.26349 11.9801 2.99192 10.9239 5.31573L8.57245 10.4862C7.99449 9.70775 7.07372 9.20061 6.03506 9.20061H4.1042C2.35799 9.20061 0.93721 10.6278 0.93721 12.3818C0.93721 13.9895 2.13551 15.3472 3.72453 15.5401L5.63119 15.7714L3.59624 17.8153C2.21411 19.2037 1.55284 21.1932 1.82713 23.1373L2.73393 29.5584C2.97216 31.246 3.81725 32.7272 5.02562 33.791V36.5106C5.02562 36.7275 5.04608 36.9396 5.08311 37.1459H1.49682C0.68956 37.1459 0.0352783 37.8032 0.0352783 38.614V44.3278C0.0352783 45.1387 0.68956 45.7959 1.49682 45.7959H21.6749V49.9848C21.6749 50.7957 22.3292 51.4529 23.1365 51.4529H24.7338V67.5232C24.7338 68.3341 25.3881 68.9913 26.1953 68.9913C27.0026 68.9913 27.6569 68.3341 27.6569 67.5232V51.4529H29.3344V67.5232C29.3344 68.3341 29.9887 68.9913 30.7959 68.9913C31.6032 68.9913 32.2575 68.3341 32.2575 67.5232V51.4529H33.8539C34.6612 51.4529 35.3155 50.7957 35.3155 49.9848V45.7959H55.4936C56.3009 45.7959 56.9552 45.1387 56.9552 44.3278V38.614C56.9552 37.8032 56.3007 37.1459 55.4936 37.1459ZM49.0408 36.5106C49.0408 36.8608 48.7571 37.1459 48.4083 37.1459H43.2161C42.8674 37.1459 42.5836 36.861 42.5836 36.5106V35.5198H47.4199C47.9758 35.5198 48.5185 35.451 49.0405 35.3227V36.5106H49.0408ZM5.80381 29.8753H51.1868C50.6444 31.4609 49.1374 32.5836 47.4203 32.5836H9.57019C7.85289 32.5836 6.34604 31.461 5.80381 29.8753ZM8.84137 16.6994H48.1489L51.327 19.8917C51.7609 20.3276 52.06 20.875 52.2036 21.4627H4.7869C4.93046 20.8748 5.22959 20.3274 5.6635 19.8917L8.84137 16.6994ZM44.2624 26.9392L43.4723 24.3987H52.0324L51.6737 26.9392H44.2624ZM40.4098 24.3989L41.1998 26.9393H15.7905L16.5807 24.3989H40.4098ZM13.5181 24.3989L12.7279 26.9393H5.31679L4.95807 24.3989H13.5181ZM17.3304 35.5198H39.6606V36.5106C39.6606 36.7275 39.6811 36.9396 39.7181 37.1459H17.273C17.31 36.9396 17.3304 36.7275 17.3304 36.5106V35.5198ZM50.7115 12.3818C50.7115 12.2467 50.8209 12.1368 50.9554 12.1368H52.8861C53.0206 12.1368 53.13 12.2467 53.13 12.3818C53.13 12.5056 53.0378 12.6102 52.9155 12.625L50.7117 12.8924V12.3818H50.7115ZM13.5831 6.53539C14.264 5.0368 15.625 3.92236 17.2233 3.55436C20.8052 2.72978 36.1854 2.72995 39.7668 3.55436C41.3653 3.92252 42.7263 5.0368 43.4074 6.53571L46.6949 13.7631H10.2959L13.5831 6.53539ZM3.86029 12.3818C3.86029 12.2467 3.96974 12.1368 4.1042 12.1368H6.03489C6.16952 12.1368 6.27897 12.2467 6.27897 12.3818V12.8925L4.07513 12.6252C3.95269 12.6103 3.86029 12.5058 3.86029 12.3818ZM7.94902 36.5106V35.3226C8.47112 35.4508 9.01416 35.5198 9.57003 35.5198H14.4072V36.5106C14.4072 36.8608 14.1235 37.1459 13.7747 37.1459H8.58171C8.23272 37.1459 7.94902 36.861 7.94902 36.5106ZM32.3924 48.5167H24.598V45.7959H32.3924V48.5167ZM54.0321 42.8597H2.95836V40.0821H54.0321V42.8597Z" fill="url(#paint0_linear)"/>
<path d="M48.964 47.8927C48.7031 47.4384 48.2206 47.1587 47.6983 47.1587C47.1762 47.1587 46.6936 47.4384 46.4326 47.8927L40.8656 57.578C40.6045 58.0323 40.6045 58.5918 40.8656 59.0461C41.1266 59.5004 41.6091 59.7801 42.1313 59.7801H43.5575V67.5231C43.5575 68.334 44.2118 68.9912 45.019 68.9912C45.8263 68.9912 46.4806 68.334 46.4806 67.5231V58.3121C46.4806 57.5012 45.8263 56.844 45.019 56.844H44.6629L47.6983 51.5629L50.7336 56.844H50.3777C49.5704 56.844 48.9161 57.5012 48.9161 58.3121V67.5231C48.9161 68.334 49.5704 68.9912 50.3777 68.9912C51.1849 68.9912 51.8392 68.334 51.8392 67.5231V59.7801H53.2652C53.7874 59.7801 54.2699 59.5004 54.5309 59.0461C54.792 58.5918 54.792 58.0323 54.5309 57.578L48.964 47.8927Z" fill="url(#paint1_linear)"/>
<path d="M10.7235 47.8927C10.4625 47.4384 9.98008 47.1587 9.45782 47.1587C8.93556 47.1587 8.45309 47.4384 8.19213 47.8927L2.62529 57.578C2.36416 58.0323 2.36416 58.5918 2.62529 59.0461C2.88626 59.5004 3.36873 59.7801 3.89098 59.7801H5.31696V67.5231C5.31696 68.334 5.97124 68.9912 6.77849 68.9912C7.58575 68.9912 8.24003 68.334 8.24003 67.5231V58.3121C8.24003 57.5012 7.58575 56.844 6.77849 56.844H6.42253L9.45782 51.5629L12.4931 56.844H12.1371C11.3299 56.844 10.6756 57.5012 10.6756 58.3121V67.5231C10.6756 68.334 11.3299 68.9912 12.1371 68.9912C12.9444 68.9912 13.5987 68.334 13.5987 67.5231V59.7801H15.0247C15.5469 59.7801 16.0294 59.5004 16.2903 59.0461C16.5514 58.5918 16.5514 58.0323 16.2903 57.578L10.7235 47.8927Z" fill="url(#paint2_linear)"/>
</g>
<defs>
<linearGradient id="paint0_linear" x1="28.4952" y1="-0.00012207" x2="28.4952" y2="68.9913" gradientUnits="userSpaceOnUse">
<stop stop-color="#FAD586"/>
<stop offset="1" stop-color="#FFC74F"/>
</linearGradient>
<linearGradient id="paint1_linear" x1="47.6983" y1="47.1587" x2="47.6983" y2="68.9912" gradientUnits="userSpaceOnUse">
<stop stop-color="#FAD586"/>
<stop offset="1" stop-color="#FFC74F"/>
</linearGradient>
<linearGradient id="paint2_linear" x1="9.45779" y1="47.1587" x2="9.45779" y2="68.9912" gradientUnits="userSpaceOnUse">
<stop stop-color="#FAD586"/>
<stop offset="1" stop-color="#FFC74F"/>
</linearGradient>
<clipPath id="clip0">
<rect width="57" height="69" fill="white"/>
</clipPath>
</defs>
</svg>
