<svg width="57" height="51" viewBox="0 0 57 51" fill="none" xmlns="http://www.w3.org/2000/svg">
<path d="M51.5138 26.138L54.4225 25.7937C55.8673 25.6226 56.9564 24.4183 56.9564 22.9923C56.9564 21.4364 55.6648 20.1706 54.0773 20.1706H52.051C50.8128 20.1706 49.7546 20.9408 49.3489 22.0181L46.515 15.9383C45.4636 13.6802 43.3622 12.0014 40.8937 11.4472C40.7797 11.4217 40.6555 11.3966 40.5234 11.3723C40.4217 8.58216 39.3282 5.94404 37.3876 3.85707C35.2192 1.52471 32.2538 0.159566 29.0376 0.0132078C25.8203 -0.134218 22.7396 0.956589 20.3599 3.08175C17.9801 5.20691 16.5871 8.1132 16.4378 11.2652C16.4361 11.3009 16.4354 11.3365 16.434 11.3722C16.3012 11.3968 16.1763 11.4218 16.062 11.4474C13.5937 12.0018 11.4923 13.6808 10.4408 15.939L7.60714 22.0169C7.20112 20.9404 6.14341 20.1707 4.90551 20.1707H2.87917C1.29164 20.1706 0 21.4364 0 22.9923C0 24.4183 1.08929 25.6226 2.5339 25.7937L5.44211 26.138L2.66012 28.8646C1.30773 30.1914 0.661006 32.0907 0.930274 33.9448L1.88148 40.5206C2.12062 42.1696 2.98929 43.6725 4.2911 44.7259V47.7005C4.2911 49.4768 5.76559 50.9218 7.57797 50.9218H13.0287C14.8412 50.9218 16.3156 49.4768 16.3156 47.7005V46.2498H40.6415V47.7005C40.6415 49.4768 42.116 50.9218 43.9284 50.9218H49.3776C51.1901 50.9218 52.6645 49.4768 52.6645 47.7005V44.7261C53.9665 43.6725 54.8352 42.1698 55.0742 40.5207L56.0268 33.9445C56.2947 32.0885 55.6474 30.1893 54.2952 28.8642L51.5138 26.138ZM50.9581 43.3186C50.186 43.8395 49.281 44.1148 48.3408 44.1148H8.61511C7.67491 44.1148 6.76993 43.8395 5.99746 43.3183C5.00511 42.6494 4.31736 41.6215 4.0821 40.47H52.8737C52.6386 41.6215 51.9508 42.6494 50.9581 43.3186ZM41.31 34.8619L42.4172 38.3352H40.9087L39.8016 34.8619H41.31ZM37.5193 34.8619L38.6264 38.3352H18.3296L19.4366 34.8619H37.5193ZM16.0474 38.3352H14.5394L15.6466 34.8619H17.1546L16.0474 38.3352ZM12.2571 38.3352H3.76551L3.26316 34.8619H13.3643L12.2571 38.3352ZM44.6995 38.3352L43.5923 34.8619H53.6939L53.1909 38.3352H44.6995ZM51.3502 22.9923C51.3502 22.6136 51.6646 22.3055 52.051 22.3055H54.0773C54.4637 22.3055 54.7781 22.6136 54.7781 22.9923C54.7781 23.3394 54.5129 23.6326 54.1613 23.6742L51.3501 24.007V22.9923H51.3502ZM48.2717 24.8427H44.7673L38.6099 18.2203C38.9616 17.6881 39.2683 17.1304 39.5265 16.5513C40.94 16.6495 42.0406 16.7686 42.7349 16.8995C43.5033 17.0444 44.232 17.2873 44.9058 17.6223L48.2717 24.8427ZM36.5965 20.5449C36.8215 20.344 37.0375 20.1361 37.2447 19.9218L45.6071 28.9159C45.9442 29.2785 45.9174 29.8422 45.5476 30.1725C45.1778 30.5029 44.6023 30.4767 44.2653 30.1142L35.9008 21.1178C36.1382 20.9354 36.3713 20.7461 36.5965 20.5449ZM42.9275 14.7641C42.2553 14.65 41.3517 14.5488 40.2275 14.4616C40.299 14.1539 40.3588 13.8425 40.4053 13.5277C40.406 13.5278 40.4067 13.5279 40.4074 13.5282C41.3427 13.7381 42.2049 14.1695 42.9275 14.7641ZM18.6138 11.3642C18.7363 8.78189 19.8774 6.40078 21.8271 4.65967C23.6608 3.02209 26.0033 2.13493 28.4674 2.13493C28.6233 2.13493 28.7798 2.13849 28.9366 2.14561C31.5715 2.26552 34.001 3.38396 35.7776 5.2948C39.4451 9.23935 39.1543 15.3726 35.1295 18.9669C33.1799 20.708 30.655 21.6002 28.02 21.481C25.3852 21.3609 22.9556 20.2426 21.1791 18.3318C19.4024 16.4209 18.4914 13.9465 18.6138 11.3642ZM16.5483 13.5283C16.5486 13.5282 16.5491 13.5282 16.5495 13.528C16.5958 13.8422 16.6545 14.1536 16.7262 14.4615C15.6002 14.5494 14.6973 14.6508 14.0284 14.7644C14.7511 14.1696 15.6133 13.7382 16.5483 13.5283ZM12.0519 17.6214C12.7252 17.2871 13.4538 17.0444 14.2231 16.8994C14.9129 16.769 16.0134 16.6497 17.4305 16.5506C17.9519 17.7155 18.669 18.8019 19.5688 19.7696C21.7373 22.102 24.7028 23.467 27.9189 23.6135C28.1104 23.6223 28.3009 23.6265 28.4914 23.6265C30.4497 23.6265 32.3441 23.1646 34.0461 22.2925L36.4172 24.8427H8.68566L12.0519 17.6214ZM2.17834 22.9923C2.17834 22.6136 2.49275 22.3055 2.87917 22.3055H4.90539C5.2918 22.3055 5.60621 22.6136 5.60621 22.9923V24.007L2.79506 23.6742C2.4435 23.6326 2.17834 23.3394 2.17834 22.9923ZM7.66608 26.9776H38.4023L42.6554 31.5519C43.2632 32.2059 44.0991 32.5379 44.9377 32.5379C45.6799 32.5379 46.4244 32.2778 47.0148 31.7503C48.2727 30.627 48.3635 28.7104 47.2174 27.4777L46.7522 26.9775H49.2901L52.7553 30.3736C53.4027 31.0081 53.7987 31.8471 53.8885 32.7269H3.06832C3.15775 31.8476 3.55348 31.0086 4.20082 30.3736L7.66608 26.9776ZM14.1373 47.7004C14.1373 48.2995 13.6401 48.7868 13.0288 48.7868H7.5781C6.96683 48.7868 6.46956 48.2995 6.46956 47.7004V45.9097C7.15586 46.1333 7.8781 46.2496 8.61511 46.2496H14.1373V47.7004ZM49.3779 48.7868H43.9286C43.3173 48.7868 42.8201 48.2995 42.8201 47.7004V46.2496H48.341C49.0781 46.2496 49.8002 46.1334 50.4865 45.9098V47.7005C50.4864 48.2995 49.989 48.7868 49.3779 48.7868Z" fill="url(#paint0_linear)"/>
<path d="M28.0633 20.5119C28.2045 20.5184 28.345 20.5216 28.4854 20.5216C30.7026 20.5215 32.8106 19.7232 34.4605 18.2498C38.0822 15.0155 38.3439 9.49666 35.0437 5.94718C33.4451 4.22765 31.2589 3.22141 28.8879 3.11336C26.5155 3.00401 24.245 3.80886 22.4907 5.3755C18.869 8.60973 18.6073 14.1286 21.9075 17.6781C23.5061 19.3976 25.6923 20.404 28.0633 20.5119ZM23.9578 6.95354C25.2034 5.84127 26.7943 5.23864 28.4682 5.23864C28.5741 5.23864 28.6805 5.24113 28.787 5.24599C30.5767 5.32747 32.227 6.08713 33.4336 7.38502C35.9247 10.0643 35.7272 14.2302 32.9934 16.6717C31.6692 17.8544 29.9539 18.4615 28.1644 18.3793C26.3746 18.2978 24.7244 17.5381 23.5177 16.2402C21.0266 13.561 21.224 9.39502 23.9578 6.95354Z" fill="url(#paint1_linear)"/>
<path d="M30.8829 14.3984C30.4383 14.7955 30.4063 15.4706 30.8114 15.9064C31.0262 16.1375 31.321 16.2548 31.6168 16.2548C31.8785 16.2548 32.1413 16.1629 32.35 15.9763C33.4848 14.963 34.1489 13.5772 34.2201 12.0744C34.2914 10.5715 33.7611 9.13135 32.7271 8.01932C32.3218 7.58368 31.633 7.55225 31.1885 7.94934C30.7437 8.34643 30.7119 9.02164 31.117 9.45728C31.7591 10.1478 32.0883 11.0421 32.0441 11.9753C31.9999 12.9086 31.5875 13.7692 30.8829 14.3984Z" fill="url(#paint2_linear)"/>
<defs>
<linearGradient id="paint0_linear" x1="28.4782" y1="0" x2="28.4782" y2="50.9218" gradientUnits="userSpaceOnUse">
<stop stop-color="#FAD586"/>
<stop offset="1" stop-color="#FFC74F"/>
</linearGradient>
<linearGradient id="paint1_linear" x1="28.4756" y1="3.10352" x2="28.4756" y2="20.5216" gradientUnits="userSpaceOnUse">
<stop stop-color="#FAD586"/>
<stop offset="1" stop-color="#FFC74F"/>
</linearGradient>
<linearGradient id="paint2_linear" x1="32.3769" y1="7.6709" x2="32.3769" y2="16.2548" gradientUnits="userSpaceOnUse">
<stop stop-color="#FAD586"/>
<stop offset="1" stop-color="#FFC74F"/>
</linearGradient>
</defs>
</svg>
