<svg width="61" height="44" viewBox="0 0 61 44" fill="none" xmlns="http://www.w3.org/2000/svg">
<path d="M13.683 11.3683C14.172 11.9534 14.0932 12.8257 13.499 13.3117C12.91 13.7975 12.0318 13.714 11.5428 13.1289C11.2169 12.7371 10.9538 12.2774 10.7698 11.7706C10.591 11.2846 10.4962 10.7677 10.4962 10.2398C10.4962 9.71218 10.591 9.2002 10.7698 8.70904C10.9538 8.2024 11.2169 7.74774 11.5428 7.35574C12.0318 6.76543 12.91 6.68194 13.499 7.16775C14.0932 7.65393 14.172 8.52622 13.683 9.11136C13.5517 9.27336 13.4463 9.45103 13.3781 9.63901C13.315 9.81667 13.2781 10.0203 13.2781 10.2398C13.2781 10.4645 13.3148 10.663 13.3781 10.8406C13.4463 11.0286 13.5515 11.2063 13.683 11.3683ZM35.5168 2.76891V4.38318C35.5168 5.14599 34.8963 5.76229 34.1285 5.76229C33.3607 5.76229 32.7349 5.14581 32.7349 4.38318V2.76891L30.5632 2.76891V7.55441C30.5632 7.9149 30.7157 8.23889 30.9524 8.47387C31.1889 8.70886 31.515 8.86053 31.8779 8.86053L45.3819 8.86053C45.7394 8.86053 46.0707 8.70904 46.3074 8.47387C46.5441 8.23889 46.6912 7.9149 46.6912 7.55441V2.76891L44.5247 2.76891V4.38318C44.5247 5.14599 43.8987 5.76229 43.1311 5.76229C42.3633 5.76229 41.7374 5.14581 41.7374 4.38318V2.76891L40.0179 2.76891V4.38318C40.0179 5.14599 39.3973 5.76229 38.6297 5.76229C37.8619 5.76229 37.2361 5.14581 37.2361 4.38318V2.76891L35.5168 2.76891ZM27.7813 7.55441V2.76891L24.9836 2.76891V17.7155L49.5729 17.7155V13.9958C49.5729 13.4997 49.8464 13.0189 50.325 12.7734L58.2181 8.68803V2.76891L49.473 2.76891V7.55441C49.473 8.67771 49.0155 9.69117 48.274 10.4278C47.5325 11.1645 46.5072 11.6241 45.3819 11.6241L31.8777 11.6241C30.747 11.6241 29.7269 11.1645 28.9856 10.4278C28.2441 9.69117 27.7813 8.67771 27.7813 7.55441ZM59.0438 38.294C59.3015 39.0411 58.8755 39.7831 58.1341 40.0548L47.7587 43.9103C47.0172 44.1871 46.2178 43.8005 45.9549 43.0638L42.9259 34.2661C42.6788 33.54 43.068 32.7617 43.7938 32.516C44.5247 32.2705 45.3083 32.6572 45.5554 33.3782L48.1269 40.8332L55.9781 37.918L55.2471 35.7866C54.9422 35.8231 54.6424 35.8439 54.348 35.8439C52.4233 35.8439 50.6775 35.0708 49.4154 33.817C48.1534 32.563 47.375 30.8288 47.375 28.9167C47.375 27.4226 47.8536 26.0329 48.6738 24.8991C49.2418 24.105 49.9727 23.4364 50.8194 22.9399L49.9727 20.4793H41.112L43.5153 27.4537C43.7626 28.1747 43.3734 28.9583 42.6477 29.2038C41.9218 29.4493 41.133 29.0626 40.8859 28.3367L38.1776 20.4793L23.5902 20.4793C22.8224 20.4793 22.202 19.8575 22.202 19.0948V16.9422H18.1896C17.4218 16.9422 16.8013 16.3257 16.8013 15.5631V4.91599C16.8013 4.15317 17.4218 3.53688 18.1896 3.53688L22.202 3.53688V1.38445C22.202 0.621638 22.8226 0 23.5902 0C35.5957 0 47.601 0 59.6064 0C60.3743 0 61 0.621638 61 1.38445V9.52382C61 10.0776 60.6741 10.5531 60.2006 10.7778L52.3549 14.837V18.8751C54.5845 25.3483 56.8141 31.8212 59.0438 38.294ZM51.7501 25.6409C51.4399 25.8864 51.1611 26.1739 50.9298 26.4976C50.446 27.1769 50.1567 28.0127 50.1567 28.9165C50.1567 30.0658 50.6248 31.1054 51.382 31.8629C52.1339 32.6047 53.17 33.0697 54.3111 33.08L51.7501 25.6409ZM22.202 6.30044L19.5832 6.30044V14.1787H22.202V6.30044ZM3.45494 0.70531C3.94394 0.120161 4.81677 0.0366755 5.41096 0.522487C5.99995 1.00848 6.08418 1.88077 5.59499 2.46592C4.69582 3.54738 3.98068 4.775 3.49687 6.10729C3.03402 7.38707 2.78172 8.77705 2.78172 10.2398C2.78172 11.7028 3.03402 13.0924 3.49687 14.3773C3.98068 15.7043 4.69582 16.9319 5.59499 18.0135C6.08418 18.6039 5.99995 19.471 5.41096 19.957C4.81677 20.4428 3.94394 20.3645 3.45494 19.7742C2.36117 18.4629 1.48816 16.9529 0.888596 15.3021C0.310173 13.714 0 12.0056 0 10.2398C0 8.47406 0.310173 6.77077 0.888596 5.17732C1.48816 3.52656 2.36117 2.0166 3.45494 0.70531ZM7.54619 4.06968C8.03538 3.47937 8.9082 3.39589 9.50238 3.8817C10.0914 4.36751 10.1754 5.2398 9.68641 5.82513C9.17106 6.44161 8.76628 7.14158 8.49265 7.89407C8.22978 8.61504 8.08768 9.40384 8.08768 10.2398C8.08768 11.0756 8.22978 11.8646 8.49265 12.5907C8.76609 13.3379 9.17106 14.0379 9.68641 14.6543C10.1754 15.2395 10.0914 16.1118 9.50238 16.5978C8.9082 17.0836 8.03538 17.0001 7.54619 16.4149C6.83624 15.5685 6.27377 14.5863 5.88457 13.5156C5.51114 12.4813 5.30614 11.3788 5.30614 10.24C5.30614 9.10104 5.51114 7.99893 5.88457 6.96428C6.27358 5.89314 6.83624 4.91617 7.54619 4.06968Z" fill="url(#paint0_linear)"/>
<defs>
<linearGradient id="paint0_linear" x1="4.8364" y1="4.11432" x2="60.4282" y2="44.2242" gradientUnits="userSpaceOnUse">
<stop stop-color="#FFD16F"/>
<stop offset="1" stop-color="#F9B628"/>
</linearGradient>
</defs>
</svg>
