<svg width="60" height="50" viewBox="0 0 60 50" fill="none" xmlns="http://www.w3.org/2000/svg">
<path d="M59.6946 30.2349C59.563 30.0101 59.3607 29.8351 59.1192 29.7374L54.8264 27.9801L59.2726 25.362C59.8347 25.0329 60.0237 24.3106 59.6946 23.7484C59.563 23.5236 59.3607 23.3486 59.1192 23.2509L54.8264 21.4936L59.2726 18.8755C59.6609 18.6418 59.881 18.2063 59.8387 17.7551C59.8046 17.3094 59.5214 16.9211 59.1075 16.7526L42.2072 9.82977L33.8809 6.29168C33.7457 6.23817 33.6017 6.21031 33.4563 6.20913L19.8937 0.689715C19.5607 0.551435 19.1827 0.573253 18.8676 0.748683L0.693687 10.962C0.111968 11.2549 -0.122135 11.964 0.170788 12.5457C0.304351 12.811 0.533294 13.0163 0.811624 13.1202L5.19885 14.9364L0.693687 17.4484C0.126857 17.7692 -0.0726021 18.4889 0.248184 19.0558C0.375702 19.281 0.57354 19.4579 0.811624 19.5595L5.19885 21.3757L0.717275 23.8878C0.118012 24.1431 -0.160612 24.836 0.0947198 25.4351C0.22784 25.7475 0.489068 25.9872 0.811624 26.0932L5.19885 27.8976L0.717275 30.4096C0.150444 30.7304 -0.0490149 31.4501 0.271771 32.0169C0.399289 32.2422 0.597127 32.4191 0.835211 32.5207L16.0844 38.9954C16.1401 39.0359 16.1993 39.0714 16.2613 39.1015L24.5993 42.6396L39.931 49.1615C40.276 49.3079 40.6701 49.2816 40.9925 49.0907L59.2726 38.3349C59.8347 38.0059 60.0237 37.2835 59.6946 36.7214C59.563 36.4966 59.3607 36.3216 59.1192 36.2239L54.8264 34.4666L59.2726 31.8484C59.8347 31.5195 60.0235 30.797 59.6946 30.2349ZM56.0175 24.513L40.2966 33.771L26.2386 27.8034V23.8761L39.9192 29.6904C40.0647 29.7523 40.2212 29.7844 40.3792 29.7847C40.5909 29.7847 40.7986 29.7277 40.9807 29.6196L52.2672 22.9798L56.0175 24.513ZM56.0647 18.0147L40.2966 27.2727L27.5242 21.8476L41.9124 12.2358L56.0647 18.0147ZM15.5065 36.2122L3.93693 31.2943L7.91138 29.0653L15.5183 32.2967L15.5065 36.2122ZM15.5065 29.7257L3.93693 24.8078L7.91138 22.5552L15.5183 25.7867L15.5065 29.7257ZM15.5065 23.2393L3.93693 18.3331L7.91138 16.1041L15.5183 19.3356L15.5065 23.2393ZM3.93693 11.8466L19.5281 3.08397L30.8382 7.71886L16.5915 17.2245L3.93693 11.8466ZM24.3988 21.1164C24.0738 21.3361 23.8793 21.703 23.8799 22.0953V39.7857L17.877 37.2383V19.2058L33.5035 8.79208L39.3178 11.1508L24.3988 21.1164ZM56.0175 37.4859L40.2966 46.7321L26.2386 40.7646V36.8491L39.9192 42.6044C40.2642 42.7508 40.6583 42.7245 40.9807 42.5336L52.2672 35.8938L56.0175 37.4859ZM40.2966 40.2456L26.2386 34.2781V30.3626L39.931 36.1768C40.276 36.3232 40.6701 36.297 40.9925 36.1061L52.2789 29.4663L56.0175 30.9994L40.2966 40.2456Z" fill="url(#paint0_linear)"/>
<defs>
<linearGradient id="paint0_linear" x1="29.9282" y1="0.599609" x2="29.9282" y2="49.2552" gradientUnits="userSpaceOnUse">
<stop stop-color="#FAD586"/>
<stop offset="1" stop-color="#FFC74F"/>
</linearGradient>
</defs>
</svg>
