<svg width="45" height="69" viewBox="0 0 45 69" fill="none" xmlns="http://www.w3.org/2000/svg">
<path d="M44.6055 19.5473L36.4918 11.389L41.5279 6.32536C41.7804 6.07147 41.9222 5.72717 41.9222 5.36812C41.9222 5.00908 41.7804 4.66476 41.5279 4.41086L37.5356 0.396537C37.0097 -0.132179 36.1574 -0.132179 35.6315 0.396537L30.5956 5.46018L28.8032 3.65788C28.2774 3.12917 27.425 3.12917 26.8992 3.65788C26.3859 4.17396 26.3752 5.00216 26.8639 5.53313L4.47854 28.0419C3.95048 27.5504 3.12682 27.5612 2.61357 28.0773C2.08775 28.606 2.08775 29.4631 2.61357 29.9918L7.56644 34.9719L4.70054 37.8536C3.29571 39.2662 2.52202 41.1441 2.52202 43.1418C2.52202 45.1395 3.29556 47.0176 4.70054 48.4302L9.55124 53.3076C9.55947 53.3159 9.5846 53.3411 9.5846 53.3878C9.5846 53.4337 9.56036 53.458 9.55244 53.4661L0.394364 62.6747C-0.131455 63.2034 -0.131455 64.0605 0.394364 64.5892L4.38669 68.6035C4.64953 68.8678 4.99419 69 5.3387 69C5.68321 69 6.02774 68.8678 6.29071 68.6035L16.1652 58.6746C17.57 57.2621 18.3435 55.3843 18.3431 53.3867C18.3428 51.3895 17.5689 49.5117 16.1641 48.0993L11.3135 43.2218C11.269 43.177 11.269 43.1069 11.3135 43.0621L13.463 40.9008L18.4161 45.8812C18.6789 46.1457 19.0234 46.2777 19.3681 46.2777C19.7126 46.2777 20.0573 46.1455 20.3201 45.8812C20.8334 45.3651 20.8441 44.5369 20.3554 44.006L42.7409 21.497C42.9985 21.7367 43.3257 21.8581 43.6539 21.8581C43.9984 21.8581 44.3431 21.7259 44.6059 21.4616C45.1314 20.9331 45.1314 20.076 44.6055 19.5473ZM36.5835 3.2683L38.6719 5.36812L34.588 9.47451L32.4995 7.37469L36.5835 3.2683ZM9.40928 41.1478C8.3156 42.2474 8.3156 44.0367 9.40928 45.1364L14.26 50.0138C16.1101 51.8741 16.1106 54.9007 14.261 56.7604L5.3384 65.732L3.25009 63.6322L11.456 55.381C12.5491 54.2819 12.5486 52.4931 11.455 51.3936L6.60426 46.5161C5.70805 45.615 5.21454 44.4168 5.21454 43.1423C5.21454 41.8678 5.70805 40.6697 6.60426 39.7684L9.47016 36.8867L11.5586 38.9867L9.40928 41.1478ZM18.4529 42.0897L6.38436 29.9546L28.7661 7.44959L40.8347 19.5847L18.4529 42.0897Z" fill="url(#paint0_linear)"/>
<defs>
<linearGradient id="paint0_linear" x1="22.5" y1="0" x2="22.5" y2="69" gradientUnits="userSpaceOnUse">
<stop stop-color="#FAD586"/>
<stop offset="1" stop-color="#FFC74F"/>
</linearGradient>
</defs>
</svg>
