<svg width="50" height="50" viewBox="0 0 50 50" fill="none" xmlns="http://www.w3.org/2000/svg">
<path d="M25 20.5078C24.191 20.5078 23.5352 21.1637 23.5352 21.9727C23.5352 22.7816 24.191 23.4375 25 23.4375C25.809 23.4375 26.4648 22.7816 26.4648 21.9727C26.4648 21.1637 25.809 20.5078 25 20.5078ZM22.0703 11.7188C22.8793 11.7188 23.5352 11.0629 23.5352 10.2539C23.5352 9.44619 24.1923 8.78906 25 8.78906C25.8077 8.78906 26.4648 9.44619 26.4648 10.2539C26.4648 10.7754 26.1838 11.2619 25.7315 11.5235C24.3768 12.3071 23.5352 13.7654 23.5352 15.3293V16.1133C23.5352 16.9223 24.191 17.5781 25 17.5781C25.809 17.5781 26.4648 16.9223 26.4648 16.1133V15.3293C26.4648 14.8078 26.7459 14.3213 27.1985 14.0596C28.553 13.2759 29.3945 11.8177 29.3945 10.2539C29.3945 7.83076 27.4231 5.85938 25 5.85938C22.5769 5.85938 20.6055 7.83076 20.6055 10.2539C20.6055 11.0629 21.2613 11.7188 22.0703 11.7188ZM41.6403 26.7067L25 40.5737L8.35967 26.7067C7.73818 26.1889 6.81465 26.2729 6.29658 26.8943C5.77861 27.5158 5.8627 28.4395 6.48418 28.9574C10.3773 32.2014 24.0113 43.5646 24.09 43.627C24.6362 44.0617 25.4119 44.0428 25.9378 43.6059L43.5159 28.9574C44.1374 28.4395 44.2215 27.5158 43.7035 26.8943C43.1854 26.2728 42.2616 26.1889 41.6403 26.7067ZM45.6055 17.5781H39.3539C39.5469 16.6313 39.6484 15.6515 39.6484 14.6484C39.6484 6.57129 33.0771 0 25 0C16.9229 0 10.3516 6.57129 10.3516 14.6484C10.3516 15.6515 10.4531 16.6313 10.6461 17.5781H4.39453C1.97139 17.5781 0 19.5495 0 21.9727V45.6055C0 48.0286 1.97139 50 4.39453 50H45.6055C48.0286 50 50 48.0286 50 45.6055V21.9727C50 19.5495 48.0286 17.5781 45.6055 17.5781ZM25 2.92969C31.4617 2.92969 36.7188 8.18672 36.7188 14.6484C36.7188 21.1102 31.4617 26.3672 25 26.3672C18.5383 26.3672 13.2812 21.1102 13.2812 14.6484C13.2812 8.18672 18.5383 2.92969 25 2.92969ZM47.0703 45.6055C47.0703 46.4132 46.4132 47.0703 45.6055 47.0703H4.39453C3.58682 47.0703 2.92969 46.4132 2.92969 45.6055V21.9727C2.92969 21.1649 3.58682 20.5078 4.39453 20.5078H11.576C13.8408 25.6766 19.0052 29.2969 25 29.2969C30.9948 29.2969 36.1593 25.6766 38.424 20.5078H45.6055C46.4132 20.5078 47.0703 21.1649 47.0703 21.9727V45.6055Z" fill="url(#paint0_linear)"/>
<defs>
<linearGradient id="paint0_linear" x1="25" y1="50" x2="25" y2="0" gradientUnits="userSpaceOnUse">
<stop stop-color="#F9B628"/>
<stop offset="1" stop-color="#FFD16F"/>
</linearGradient>
</defs>
</svg>
