<svg width="49" height="36" viewBox="0 0 49 36" fill="none" xmlns="http://www.w3.org/2000/svg">
<path d="M39.4297 24.2244C40.4869 24.2244 41.3438 24.8139 41.3438 25.8715V26.738C41.3438 27.7957 40.4869 28.352 39.4297 28.352H35.0273C33.9701 28.352 33.1133 27.7957 33.1133 26.738V25.8715C33.1133 24.8139 33.9701 24.2244 35.0273 24.2244H39.4297ZM46 19.1749V11.8723H3V28.3404C3 30.452 5.54555 33 7.65625 33H41.3438C43.4545 33 46 30.1901 46 28.0785C46 27.0208 46.9321 26.4371 47.5 26.4371C48.0679 26.4371 49 27.0092 49 28.0669C49 32.2905 45.5655 36 41.3438 36H7.65625C3.43447 36 0 32.564 0 28.3404V7.65957C0 3.43596 3.43447 0 7.65625 0H41.3438C45.5655 0 49 3.43596 49 7.65957V19.1749C49 20.2325 48.0037 20.6261 47.5 20.6261C46.9963 20.6261 46 20.2325 46 19.1749ZM46 9V6.78419C46 4.67258 43.4545 3 41.3438 3H7.65625C5.54555 3 3 4.67258 3 6.78419V9H46ZM9.1875 18C8.13028 18 7.5 18.6246 7.5 19.5C7.5 20.3754 8.13028 21 9.1875 21H25.5829C26.6401 21 27.1875 20.1464 27.1875 19.5C27.1875 18.8536 26.6401 18 25.5829 18H17.4658H9.1875Z" fill="url(#paint0_linear)"/>
<defs>
<linearGradient id="paint0_linear" x1="5.81738" y1="-1.69605" x2="48.7088" y2="36.3645" gradientUnits="userSpaceOnUse">
<stop stop-color="#FFD16F"/>
<stop offset="1" stop-color="#F9B628"/>
</linearGradient>
</defs>
</svg>
