<svg width="55" height="63" viewBox="0 0 55 63" fill="none" xmlns="http://www.w3.org/2000/svg">
<path d="M32.1737 1H22.8208C21.0989 1 19.7031 2.29047 19.7031 3.88235V4.40642C19.7031 5.9983 21.0989 7.28877 22.8208 7.28877H32.1737C33.8955 7.28877 35.2914 5.9983 35.2914 4.40642V3.88235C35.2914 2.29047 33.8955 1 32.1737 1Z" stroke="url(#paint0_linear)" stroke-width="2"/>
<path d="M27.4995 16.2773C15.3777 16.2773 5.51562 25.3949 5.51562 36.6021C5.51562 47.8092 15.3777 56.9268 27.4995 56.9268C39.6213 56.9268 49.4833 47.8092 49.4833 36.6021C49.4833 25.3949 39.6213 16.2773 27.4995 16.2773ZM27.4995 54.3065C16.9403 54.3065 8.34989 46.3643 8.34989 36.6021C8.34989 26.84 16.9403 18.8978 27.4995 18.8978C38.0587 18.8978 46.6491 26.84 46.6491 36.6021C46.6491 46.3643 38.0587 54.3065 27.4995 54.3065Z" fill="url(#paint1_linear)"/>
<path d="M36.4662 26.4618L29.4471 32.9511C28.8601 32.6827 28.1999 32.5312 27.5019 32.5312C26.8039 32.5312 26.1438 32.6827 25.5568 32.9511L22.4154 30.0468C21.8618 29.5352 20.9648 29.5352 20.4111 30.0468C19.8577 30.5584 19.8577 31.388 20.4111 31.8997L23.5524 34.8039C23.2621 35.3466 23.0983 35.957 23.0983 36.6023C23.0983 38.8472 25.0737 40.6735 27.5019 40.6735C29.9302 40.6735 31.9055 38.8472 31.9055 36.6023C31.9055 35.957 31.7415 35.3466 31.4513 34.8039L38.2643 28.5052L38.4702 28.3148C39.0236 27.8032 39.0236 26.9735 38.4702 26.4618C37.9169 25.9502 37.0198 25.9502 36.4662 26.4618ZM27.5019 38.0533C26.6366 38.0533 25.9326 37.4025 25.9326 36.6025C25.9326 35.8024 26.6366 35.1515 27.5019 35.1515C28.3672 35.1515 29.0712 35.8024 29.0712 36.6025C29.0712 37.4025 28.3672 38.0533 27.5019 38.0533Z" fill="url(#paint2_linear)"/>
<path d="M42.6519 35.3086H41.339C40.5565 35.3086 39.9219 35.8952 39.9219 36.6188C39.9219 37.3424 40.5565 37.9289 41.339 37.9289H42.6519C43.4345 37.9289 44.0691 37.3424 44.0691 36.6188C44.0691 35.8952 43.4345 35.3086 42.6519 35.3086Z" fill="url(#paint3_linear)"/>
<path d="M13.6596 35.2764H12.3468C11.5643 35.2764 10.9297 35.8629 10.9297 36.5865C10.9297 37.3101 11.5643 37.8967 12.3468 37.8967H13.6596C14.4421 37.8967 15.0767 37.3101 15.0767 36.5865C15.0767 35.8629 14.4421 35.2764 13.6596 35.2764Z" fill="url(#paint4_linear)"/>
<path d="M27.5 61.1367C42.1355 61.1367 54 50.1677 54 36.6367C54 23.1057 42.1355 12.1367 27.5 12.1367C12.8645 12.1367 1 23.1057 1 36.6367C1 50.1677 12.8645 61.1367 27.5 61.1367Z" stroke="url(#paint5_linear)" stroke-width="2"/>
<path d="M27.5187 25.1182C28.3012 25.1182 28.9358 24.5317 28.9358 23.8081V22.5943C28.9358 21.8707 28.3012 21.2842 27.5187 21.2842C26.7361 21.2842 26.1016 21.8707 26.1016 22.5943V23.8081C26.1016 24.5317 26.7361 25.1182 27.5187 25.1182Z" fill="url(#paint6_linear)"/>
<path d="M27.0771 11.95L23.3906 12.518V7.15723H31.6099V12.5344L27.3418 11.9479L27.2093 11.9296L27.0771 11.95Z" stroke="url(#paint7_linear)" stroke-width="2"/>
<path d="M27.4796 48.0869C26.6971 48.0869 26.0625 48.6735 26.0625 49.3971V50.6108C26.0625 51.3344 26.6971 51.921 27.4796 51.921C28.2621 51.921 28.8967 51.3344 28.8967 50.6108V49.3971C28.8967 48.6735 28.2621 48.0869 27.4796 48.0869Z" fill="url(#paint8_linear)"/>
<path d="M10.7596 9.42884L7.71094 11.3418L11.69 16.7621L14.7387 14.8491L10.7596 9.42884Z" stroke="url(#paint9_linear)" stroke-width="2"/>
<path d="M48.3223 11.3414L45.2734 9.42871L41.2949 14.8493L44.3437 16.762L48.3223 11.3414Z" stroke="url(#paint10_linear)" stroke-width="2"/>
<defs>
<linearGradient id="paint0_linear" x1="27.4972" y1="1" x2="27.4972" y2="7.28877" gradientUnits="userSpaceOnUse">
<stop stop-color="#FAD586"/>
<stop offset="1" stop-color="#FFC74F"/>
</linearGradient>
<linearGradient id="paint1_linear" x1="27.4995" y1="16.2773" x2="27.4995" y2="56.9268" gradientUnits="userSpaceOnUse">
<stop stop-color="#FAD586"/>
<stop offset="1" stop-color="#FFC74F"/>
</linearGradient>
<linearGradient id="paint2_linear" x1="29.4407" y1="26.0781" x2="29.4407" y2="40.6735" gradientUnits="userSpaceOnUse">
<stop stop-color="#FAD586"/>
<stop offset="1" stop-color="#FFC74F"/>
</linearGradient>
<linearGradient id="paint3_linear" x1="41.9955" y1="35.3086" x2="41.9955" y2="37.9289" gradientUnits="userSpaceOnUse">
<stop stop-color="#FAD586"/>
<stop offset="1" stop-color="#FFC74F"/>
</linearGradient>
<linearGradient id="paint4_linear" x1="13.0032" y1="35.2764" x2="13.0032" y2="37.8967" gradientUnits="userSpaceOnUse">
<stop stop-color="#FAD586"/>
<stop offset="1" stop-color="#FFC74F"/>
</linearGradient>
<linearGradient id="paint5_linear" x1="27.5" y1="12.1367" x2="27.5" y2="61.1367" gradientUnits="userSpaceOnUse">
<stop stop-color="#FAD586"/>
<stop offset="1" stop-color="#FFC74F"/>
</linearGradient>
<linearGradient id="paint6_linear" x1="27.5187" y1="21.2842" x2="27.5187" y2="25.1182" gradientUnits="userSpaceOnUse">
<stop stop-color="#FAD586"/>
<stop offset="1" stop-color="#FFC74F"/>
</linearGradient>
<linearGradient id="paint7_linear" x1="27.5003" y1="7.15723" x2="27.5003" y2="12.5344" gradientUnits="userSpaceOnUse">
<stop stop-color="#FAD586"/>
<stop offset="1" stop-color="#FFC74F"/>
</linearGradient>
<linearGradient id="paint8_linear" x1="27.4796" y1="48.0869" x2="27.4796" y2="51.921" gradientUnits="userSpaceOnUse">
<stop stop-color="#FAD586"/>
<stop offset="1" stop-color="#FFC74F"/>
</linearGradient>
<linearGradient id="paint9_linear" x1="9.23526" y1="10.3853" x2="12.7997" y2="16.0658" gradientUnits="userSpaceOnUse">
<stop stop-color="#FAD586"/>
<stop offset="1" stop-color="#FFC74F"/>
</linearGradient>
<linearGradient id="paint10_linear" x1="46.7978" y1="10.3851" x2="43.2339" y2="16.0658" gradientUnits="userSpaceOnUse">
<stop stop-color="#FAD586"/>
<stop offset="1" stop-color="#FFC74F"/>
</linearGradient>
</defs>
</svg>
