<svg width="56" height="56" viewBox="0 0 56 56" fill="none" xmlns="http://www.w3.org/2000/svg">
<path fill-rule="evenodd" clip-rule="evenodd" d="M54.7712 39.3321C54.9274 39.5806 55.0193 39.8736 55.0193 40.1884C55.0193 40.1951 55.0185 40.2018 55.0185 40.2081C55.0185 40.2144 55.0193 40.2207 55.0193 40.227V48.3592C55.0193 49.2496 54.2977 49.9716 53.4074 49.9716H50.7099C50.5408 52.7828 48.201 55.0181 45.3478 55.0181C42.4946 55.0181 40.1548 52.7828 39.9852 49.9716L22.1601 49.9174C22.0178 52.7542 19.6654 55.0181 16.7937 55.0181C13.9225 55.0181 11.5701 52.7542 11.4274 49.9174H6.84812C5.95779 49.9174 5.2362 49.1958 5.2362 48.3055V35.5709H1.61106C0.720731 35.5709 -0.000854492 34.8489 -0.000854492 33.959C-0.000854492 33.0687 0.720731 32.3471 1.61106 32.3471H5.2362V29.2609H3.86775C2.97742 29.2609 2.25583 28.5389 2.25583 27.649C2.25583 26.7587 2.97742 26.0371 3.86775 26.0371H5.2362V22.8128H1.61106C0.720731 22.8128 -0.000854492 22.0913 -0.000854492 21.2009C-0.000854492 20.311 0.720731 19.589 1.61106 19.589H19.5835C18.0325 16.7514 16.8286 13.6073 16.8286 10.6798C16.8286 4.79126 21.6198 0 27.5088 0C33.3978 0 38.1886 4.79126 38.1886 10.6798C38.1886 13.6493 36.9503 16.842 35.3669 19.7112C36.4579 20.0529 37.2521 21.0733 37.2521 22.2755V24.4441H41.0598C45.2739 24.4441 48.9985 26.6449 50.5488 30.0518L54.7712 39.3321ZM34.9648 10.6798C34.9648 6.56857 31.62 3.22384 27.5088 3.22384C23.3976 3.22384 20.0528 6.56857 20.0528 10.6798C20.0528 13.7454 21.802 17.2857 23.725 20.2522C23.7611 20.3022 23.7951 20.3534 23.8257 20.4076C25.156 22.4397 26.5559 24.1901 27.5088 25.3134C28.4604 24.191 29.8591 22.443 31.1885 20.413C31.2204 20.3559 31.2561 20.3018 31.2947 20.2497C33.2168 17.2836 34.9648 13.7445 34.9648 10.6798ZM13.0326 35.5709H8.46004V46.6936H12.3068C13.2689 45.2361 14.9203 44.2719 16.7937 44.2719C18.6672 44.2719 20.3186 45.2361 21.2807 46.6936H34.0283V22.8128H33.4607C31.17 26.2071 28.8689 28.6556 28.6783 28.8567C28.374 29.1778 27.9508 29.3592 27.5088 29.3592C27.0664 29.3592 26.6437 29.1778 26.3393 28.8567C26.1483 28.6556 23.8476 26.2071 21.5569 22.8128H8.46004V26.0367H18.3175C19.2074 26.0367 19.9294 26.7587 19.9294 27.6486C19.9294 28.5389 19.2074 29.2605 18.3175 29.2605H8.46004V32.3467H13.0326C13.9229 32.3467 14.6445 33.0687 14.6445 33.9586C14.6445 34.8489 13.9229 35.5709 13.0326 35.5709ZM14.6445 49.645C14.6445 50.83 15.6087 51.7942 16.7937 51.7942C17.9788 51.7942 18.943 50.83 18.943 49.645C18.943 48.46 17.9788 47.4958 16.7937 47.4958C15.6087 47.4958 14.6445 48.46 14.6445 49.645ZM43.1982 49.645C43.1982 50.83 44.1624 51.7942 45.3478 51.7942C46.5328 51.7942 47.497 50.83 47.497 49.645C47.497 49.4444 47.4676 49.2508 47.4156 49.0666C47.3673 48.9675 47.3291 48.8634 47.3014 48.7542C46.9618 48.0129 46.215 47.4958 45.3478 47.4958C44.4806 47.4958 43.7334 48.0129 43.3942 48.7542C43.3665 48.8634 43.3283 48.9675 43.2796 49.0666C43.228 49.2508 43.1982 49.4444 43.1982 49.645ZM51.7955 41.8007L46.6079 29.9061C45.305 28.5247 43.2615 27.6679 41.0598 27.6679H37.2521V46.7473H40.8264C41.7831 45.2601 43.4517 44.2719 45.3478 44.2719C47.2439 44.2719 48.9125 45.2601 49.8691 46.7473H51.7955V41.8007Z" fill="url(#paint0_linear)"/>
<path d="M27.5081 13.8412C29.2859 13.8412 30.732 12.3951 30.732 10.6174C30.732 8.83967 29.2859 7.39355 27.5081 7.39355C25.7304 7.39355 24.2843 8.83967 24.2843 10.6174C24.2843 12.3951 25.7304 13.8412 27.5081 13.8412Z" fill="url(#paint1_linear)"/>
<defs>
<linearGradient id="paint0_linear" x1="27.5092" y1="0" x2="27.5092" y2="55.0181" gradientUnits="userSpaceOnUse">
<stop stop-color="#FFD16F"/>
<stop offset="1" stop-color="#F9B628"/>
</linearGradient>
<linearGradient id="paint1_linear" x1="27.5081" y1="7.39355" x2="27.5081" y2="13.8412" gradientUnits="userSpaceOnUse">
<stop stop-color="#FFD16F"/>
<stop offset="1" stop-color="#F9B628"/>
</linearGradient>
</defs>
</svg>
