<svg xmlns="http://www.w3.org/2000/svg" xmlns:xlink="http://www.w3.org/1999/xlink"><symbol id="icon-arr-left" viewBox="0 0 10 26"><path d="M10 1.57L3.75 13.142 10 24.714C10 25.262 7 26 6.5 26L.14 13.865c-.187-.35-.187-1.088 0-1.44L6.5.29C6.912.22 10 1.023 10 1.57z"/></symbol><symbol id="icon-arr-right" viewBox="0 0 10 26"><path d="M0 24.43l6.25-11.572L0 1.286C0 .738 3 0 3.5 0l6.36 12.135c.187.35.187 1.088 0 1.44L3.5 25.71c-.412.069-3.5-.733-3.5-1.28z"/></symbol><symbol id="icon-checked" viewBox="0 0 36 26.969"><path d="M10.4 26.012l-.03-.033-.03-.031-9.4-9.56a3.315 3.315 0 010-4.62 3.171 3.171 0 014.54 0l7.19 7.314L30.52.925a3.171 3.171 0 014.54 0 3.315 3.315 0 010 4.62L14.94 26.012a3.172 3.172 0 01-4.54 0z" fill-rule="evenodd"/></symbol><symbol id="icon-done" viewBox="0 0 64 40"><path d="M24.313 39.358L.643 15.882a2.171 2.171 0 010-3.087 2.214 2.214 0 013.112 0l22.113 21.933L60.241.636a2.213 2.213 0 013.111 0 2.169 2.169 0 010 3.087L27.424 39.358a2.213 2.213 0 01-3.111 0z" fill-rule="evenodd"/></symbol><symbol id="icon-menu-close" viewBox="0 0 30 30"><path fill-rule="evenodd" stroke-width="3" d="M27.228 3.186L15.914 14.5l11.314 11.314-1.414 1.414L14.5 15.914 3.186 27.228l-1.414-1.414L13.086 14.5 1.772 3.186l1.414-1.414L14.5 13.086 25.814 1.772l1.414 1.414z"/></symbol><symbol id="icon-menu-open" viewBox="0 0 40 24"><rect width="40" height="4" rx="1"/><rect y="10" width="40" height="4" rx="1"/><rect y="20" width="40" height="4" rx="1"/></symbol><symbol id="icon-more" viewBox="0 0 18 7"><path d="M13.667.3c.78.85 1.453 1.498 2.021 1.943.569.44 1.105.768 1.609.985v.395a8.821 8.821 0 00-1.688 1.081c-.544.434-1.195 1.072-1.95 1.916h-.678c.551-1.178 1.128-2.083 1.732-2.716H.694v-.887h14.019c-.445-.569-.756-.99-.932-1.266-.176-.275-.436-.759-.782-1.45h.668z"/></symbol><symbol id="icon-name" viewBox="0 0 18 18"><g clip-path="url(#clip0)"><path d="M8.934 9.699h.12c1.092-.019 1.975-.403 2.628-1.137 1.435-1.618 1.196-4.39 1.17-4.656C12.759 1.92 11.819.97 11.044.526 10.466.194 9.792.015 9.04 0h-.064C8.562 0 7.75.067 6.97.51c-.783.444-1.737 1.395-1.83 3.396-.026.265-.265 3.038 1.17 4.656.649.734 1.532 1.118 2.624 1.137zM6.5 4c0-2 1.687-2.5 2.5-2.5s2.5.5 2.5 2.5c.007-.094 0 1.5-.5 3-.354 1.06-1.283 1.507-2 1.5-.018-.028-.019 0-.019 0H9C8.18 8.493 7.5 8 7 7c-.5-1.5-.5-3-.5-3z"/><path d="M16.654 14.299v-.011c0-.03-.004-.06-.004-.094-.023-.738-.071-2.464-1.689-3.015l-.037-.011c-1.681-.43-3.079-1.398-3.094-1.41-.227-.16-.66 0-.83.242-.308.438-.227.84 0 1 .063.045 1.144 1.023 3 1.5.868.31.97.557.996 1.407 0 .034.004.093.004.093.004.336 0 .5 0 1-.604.343-2.4 1.5-6 1.5-3.586 0-5.392-1.157-6-1.5 0-.5-.011-.571-.004-.907 0-.03.004-.06.004-.093.026-.85.131-1.19 1-1.5 1.856-.477 2.937-1.459 3-1.5.227-.16.31-.56 0-1-.16-.227-.604-.405-.832-.245-.015.011-1.405.98-3.094 1.409a.514.514 0 00-.037.011c-1.618.555-1.666 2.281-1.689 3.016 0 .033 0 .063-.003.093v.01c-.004.195-.008 1.19.19 1.69a.478.478 0 00.194.234C1.84 16.293 4.52 18 9.005 18s7.164-1.71 7.276-1.782a.499.499 0 00.194-.235c.186-.495.182-1.49.178-1.684z"/></g><defs><clipPath id="clip0"><path d="M0 0h18v18H0z"/></clipPath></defs></symbol><symbol id="icon-phone-fill" viewBox="0 0 18 18"><path d="M18 13.476v2.71a1.803 1.803 0 01-1.23 1.719c-.24.08-.492.11-.744.088a17.933 17.933 0 01-7.81-2.773 17.63 17.63 0 01-5.43-5.42A17.852 17.852 0 01.007 1.97 1.803 1.803 0 011.08.153c.23-.101.478-.154.73-.154h2.714a1.812 1.812 0 011.81 1.554c.115.867.328 1.718.634 2.538a1.803 1.803 0 01-.407 1.906L5.41 7.145a14.466 14.466 0 005.43 5.42l1.15-1.148a1.811 1.811 0 011.91-.406c.82.305 1.674.518 2.543.632a1.81 1.81 0 011.556 1.833z"/></symbol><symbol id="icon-phone" viewBox="0 0 37.969 42"><path d="M4.539.068c2.91-.02 6.691-.38 8.454.8a5.727 5.727 0 011.912 2.409 27.3 27.3 0 01.679 3.645c.488 2.012 1.692 4.316.926 6.733-.509 1.605-1.726 2.424-2.592 3.645 1.281 3.264 5.6 7.369 8.392 9.266 1.133-1.06 1.892-2.453 3.579-2.965 1.949-.592 3.539.411 5 .865 3.415 1.063 5.784.748 6.849 4.263a17.237 17.237 0 01.247 4.448c0 4.668-.381 7.892-4.135 8.71-2.964.646-8.827-1.716-10.859-2.595-9.344-4.04-16.1-11.452-19.993-20.942C1.857 15.565-1.066 6.867.407 3.277 1.273 1.163 2.456.96 4.539.068zm.247 3.274A2.562 2.562 0 003.12 4.701a6.94 6.94 0 00.185 3.4 47.482 47.482 0 002.1 8.093c3.61 9.084 9.773 16.187 18.635 20.016 1.485.641 8.271 3.419 10.057 2.1 1.395-1.03 1.3-8.849-.123-9.761-.713-.456-1.949-.374-2.838-.617l-3.7-1.236-1.11.247c-1.01.61-2.57 3.731-4.135 3.336-1.347-.34-2.851-1.894-3.887-2.718a29.836 29.836 0 01-6.664-8.093l-1.111-2.038c-.41-1.889 2.65-3.359 3.147-4.819.445-1.305-.461-2.817-.74-3.83-.378-1.368-.275-3.588-1.049-4.633-.979-1.319-4.875-.827-7.101-.806z" fill-rule="evenodd"/></symbol><symbol id="icon-quote" viewBox="0 0 128 107"><path d="M75.507 107c16.282 0 29.054-4.99 38.304-15.09 9.27-10.1 13.884-25.858 13.884-47.324V0H74.024v48.16h25.904c0 11.793-1.927 20.562-5.707 26.303-3.778 5.74-10.008 8.628-18.714 8.628V107zm-73.603 0c8.14 0 15.39-1.197 21.758-3.649 6.368-2.452 11.839-6.21 16.318-11.327 4.48-5.138 7.913-11.655 10.308-19.576 2.376-7.94 3.576-17.197 3.576-27.862V0H.002v48.16h25.866c0 11.793-1.89 20.562-5.668 26.303-3.778 5.74-9.883 8.628-18.296 8.628V107z"/></symbol><symbol id="icon-zoom" viewBox="0 0 441.62 440.688"><path d="M434.81 433.789c-15.12 15.122-31.82.707-31.82.707l-81.629-81.627A197.149 197.149 0 01198 396C88.648 396 0 307.352 0 198S88.648 0 198 0s198 88.648 198 198a197.143 197.143 0 01-42.853 123.015l81.663 81.661s15.31 15.802 0 31.113zM198 43.5a154 154 0 10154 154 154 154 0 00-154-154z" fill-rule="evenodd"/></symbol> <view id="icon-arr-left-view-orange" viewBox="0 0 10 26"/><view id="icon-arr-left-view-light" viewBox="0 36 10 26"/><view id="icon-arr-left-view-grey" viewBox="0 72 10 26"/><view id="icon-arr-left-view-black" viewBox="0 108 10 26"/><view id="icon-arr-left-view-white" viewBox="0 144 10 26"/><view id="icon-arr-right-view-orange" viewBox="0 180 10 26"/><view id="icon-arr-right-view-light" viewBox="0 216 10 26"/><view id="icon-arr-right-view-grey" viewBox="0 252 10 26"/><view id="icon-arr-right-view-black" viewBox="0 288 10 26"/><view id="icon-arr-right-view-white" viewBox="0 324 10 26"/><view id="icon-checked-view-orange" viewBox="0 360 36 26.969"/><view id="icon-checked-view-light" viewBox="0 396.969 36 26.969"/><view id="icon-checked-view-grey" viewBox="0 433.938 36 26.969"/><view id="icon-checked-view-black" viewBox="0 470.90700000000004 36 26.969"/><view id="icon-checked-view-white" viewBox="0 507.876 36 26.969"/><view id="icon-done-view-orange" viewBox="0 544.845 64 40"/><view id="icon-done-view-light" viewBox="0 594.845 64 40"/><view id="icon-done-view-grey" viewBox="0 644.845 64 40"/><view id="icon-done-view-black" viewBox="0 694.845 64 40"/><view id="icon-done-view-white" viewBox="0 744.845 64 40"/><view id="icon-menu-close-view-orange" viewBox="0 794.845 30 30"/><view id="icon-menu-close-view-light" viewBox="0 834.845 30 30"/><view id="icon-menu-close-view-grey" viewBox="0 874.845 30 30"/><view id="icon-menu-close-view-black" viewBox="0 914.845 30 30"/><view id="icon-menu-close-view-white" viewBox="0 954.845 30 30"/><view id="icon-menu-open-view-orange" viewBox="0 994.845 40 24"/><view id="icon-menu-open-view-light" viewBox="0 1028.845 40 24"/><view id="icon-menu-open-view-grey" viewBox="0 1062.845 40 24"/><view id="icon-menu-open-view-black" viewBox="0 1096.845 40 24"/><view id="icon-menu-open-view-white" viewBox="0 1130.845 40 24"/><view id="icon-more-view-orange" viewBox="0 1164.845 18 7"/><view id="icon-more-view-light" viewBox="0 1181.845 18 7"/><view id="icon-more-view-grey" viewBox="0 1198.845 18 7"/><view id="icon-more-view-black" viewBox="0 1215.845 18 7"/><view id="icon-more-view-white" viewBox="0 1232.845 18 7"/><view id="icon-name-view-orange" viewBox="0 1249.845 18 18"/><view id="icon-name-view-light" viewBox="0 1277.845 18 18"/><view id="icon-name-view-grey" viewBox="0 1305.845 18 18"/><view id="icon-name-view-black" viewBox="0 1333.845 18 18"/><view id="icon-name-view-white" viewBox="0 1361.845 18 18"/><view id="icon-phone-fill-view-orange" viewBox="0 1389.845 18 18"/><view id="icon-phone-fill-view-light" viewBox="0 1417.845 18 18"/><view id="icon-phone-fill-view-grey" viewBox="0 1445.845 18 18"/><view id="icon-phone-fill-view-black" viewBox="0 1473.845 18 18"/><view id="icon-phone-fill-view-white" viewBox="0 1501.845 18 18"/><view id="icon-phone-view-orange" viewBox="0 1529.845 37.969 42"/><view id="icon-phone-view-light" viewBox="0 1581.845 37.969 42"/><view id="icon-phone-view-grey" viewBox="0 1633.845 37.969 42"/><view id="icon-phone-view-black" viewBox="0 1685.845 37.969 42"/><view id="icon-phone-view-white" viewBox="0 1737.845 37.969 42"/><view id="icon-quote-view-orange" viewBox="0 1789.845 128 107"/><view id="icon-quote-view-light" viewBox="0 1906.845 128 107"/><view id="icon-quote-view-grey" viewBox="0 2023.845 128 107"/><view id="icon-quote-view-black" viewBox="0 2140.8450000000003 128 107"/><view id="icon-quote-view-white" viewBox="0 2257.8450000000003 128 107"/><view id="icon-zoom-view-orange" viewBox="0 2374.8450000000003 441.62 440.688"/><view id="icon-zoom-view-light" viewBox="0 2825.5330000000004 441.62 440.688"/><view id="icon-zoom-view-grey" viewBox="0 3276.2210000000005 441.62 440.688"/><view id="icon-zoom-view-black" viewBox="0 3726.909 441.62 440.688"/><view id="icon-zoom-view-white" viewBox="0 4177.597 441.62 440.688"/> <use xlink:href="#icon-arr-left" x="0" y="0" width="10" height="26" style="fill:#FFD16F"/><use xlink:href="#icon-arr-left" x="0" y="36" width="10" height="26" style="fill:#FFE3A8"/><use xlink:href="#icon-arr-left" x="0" y="72" width="10" height="26" style="fill:#B9B9B9"/><use xlink:href="#icon-arr-left" x="0" y="108" width="10" height="26" style="fill:#111111"/><use xlink:href="#icon-arr-left" x="0" y="144" width="10" height="26" style="fill:#ffffff"/><use xlink:href="#icon-arr-right" x="0" y="180" width="10" height="26" style="fill:#FFD16F"/><use xlink:href="#icon-arr-right" x="0" y="216" width="10" height="26" style="fill:#FFE3A8"/><use xlink:href="#icon-arr-right" x="0" y="252" width="10" height="26" style="fill:#B9B9B9"/><use xlink:href="#icon-arr-right" x="0" y="288" width="10" height="26" style="fill:#111111"/><use xlink:href="#icon-arr-right" x="0" y="324" width="10" height="26" style="fill:#ffffff"/><use xlink:href="#icon-checked" x="0" y="360" width="36" height="26.969" style="fill:#FFD16F"/><use xlink:href="#icon-checked" x="0" y="396.969" width="36" height="26.969" style="fill:#FFE3A8"/><use xlink:href="#icon-checked" x="0" y="433.938" width="36" height="26.969" style="fill:#B9B9B9"/><use xlink:href="#icon-checked" x="0" y="470.90700000000004" width="36" height="26.969" style="fill:#111111"/><use xlink:href="#icon-checked" x="0" y="507.876" width="36" height="26.969" style="fill:#ffffff"/><use xlink:href="#icon-done" x="0" y="544.845" width="64" height="40" style="fill:#FFD16F"/><use xlink:href="#icon-done" x="0" y="594.845" width="64" height="40" style="fill:#FFE3A8"/><use xlink:href="#icon-done" x="0" y="644.845" width="64" height="40" style="fill:#B9B9B9"/><use xlink:href="#icon-done" x="0" y="694.845" width="64" height="40" style="fill:#111111"/><use xlink:href="#icon-done" x="0" y="744.845" width="64" height="40" style="fill:#ffffff"/><use xlink:href="#icon-menu-close" x="0" y="794.845" width="30" height="30" style="fill:#FFD16F"/><use xlink:href="#icon-menu-close" x="0" y="834.845" width="30" height="30" style="fill:#FFE3A8"/><use xlink:href="#icon-menu-close" x="0" y="874.845" width="30" height="30" style="fill:#B9B9B9"/><use xlink:href="#icon-menu-close" x="0" y="914.845" width="30" height="30" style="fill:#111111"/><use xlink:href="#icon-menu-close" x="0" y="954.845" width="30" height="30" style="fill:#ffffff"/><use xlink:href="#icon-menu-open" x="0" y="994.845" width="40" height="24" style="fill:#FFD16F"/><use xlink:href="#icon-menu-open" x="0" y="1028.845" width="40" height="24" style="fill:#FFE3A8"/><use xlink:href="#icon-menu-open" x="0" y="1062.845" width="40" height="24" style="fill:#B9B9B9"/><use xlink:href="#icon-menu-open" x="0" y="1096.845" width="40" height="24" style="fill:#111111"/><use xlink:href="#icon-menu-open" x="0" y="1130.845" width="40" height="24" style="fill:#ffffff"/><use xlink:href="#icon-more" x="0" y="1164.845" width="18" height="7" style="fill:#FFD16F"/><use xlink:href="#icon-more" x="0" y="1181.845" width="18" height="7" style="fill:#FFE3A8"/><use xlink:href="#icon-more" x="0" y="1198.845" width="18" height="7" style="fill:#B9B9B9"/><use xlink:href="#icon-more" x="0" y="1215.845" width="18" height="7" style="fill:#111111"/><use xlink:href="#icon-more" x="0" y="1232.845" width="18" height="7" style="fill:#ffffff"/><use xlink:href="#icon-name" x="0" y="1249.845" width="18" height="18" style="fill:#FFD16F"/><use xlink:href="#icon-name" x="0" y="1277.845" width="18" height="18" style="fill:#FFE3A8"/><use xlink:href="#icon-name" x="0" y="1305.845" width="18" height="18" style="fill:#B9B9B9"/><use xlink:href="#icon-name" x="0" y="1333.845" width="18" height="18" style="fill:#111111"/><use xlink:href="#icon-name" x="0" y="1361.845" width="18" height="18" style="fill:#ffffff"/><use xlink:href="#icon-phone-fill" x="0" y="1389.845" width="18" height="18" style="fill:#FFD16F"/><use xlink:href="#icon-phone-fill" x="0" y="1417.845" width="18" height="18" style="fill:#FFE3A8"/><use xlink:href="#icon-phone-fill" x="0" y="1445.845" width="18" height="18" style="fill:#B9B9B9"/><use xlink:href="#icon-phone-fill" x="0" y="1473.845" width="18" height="18" style="fill:#111111"/><use xlink:href="#icon-phone-fill" x="0" y="1501.845" width="18" height="18" style="fill:#ffffff"/><use xlink:href="#icon-phone" x="0" y="1529.845" width="37.969" height="42" style="fill:#FFD16F"/><use xlink:href="#icon-phone" x="0" y="1581.845" width="37.969" height="42" style="fill:#FFE3A8"/><use xlink:href="#icon-phone" x="0" y="1633.845" width="37.969" height="42" style="fill:#B9B9B9"/><use xlink:href="#icon-phone" x="0" y="1685.845" width="37.969" height="42" style="fill:#111111"/><use xlink:href="#icon-phone" x="0" y="1737.845" width="37.969" height="42" style="fill:#ffffff"/><use xlink:href="#icon-quote" x="0" y="1789.845" width="128" height="107" style="fill:#FFD16F"/><use xlink:href="#icon-quote" x="0" y="1906.845" width="128" height="107" style="fill:#FFE3A8"/><use xlink:href="#icon-quote" x="0" y="2023.845" width="128" height="107" style="fill:#B9B9B9"/><use xlink:href="#icon-quote" x="0" y="2140.8450000000003" width="128" height="107" style="fill:#111111"/><use xlink:href="#icon-quote" x="0" y="2257.8450000000003" width="128" height="107" style="fill:#ffffff"/><use xlink:href="#icon-zoom" x="0" y="2374.8450000000003" width="441.62" height="440.688" style="fill:#FFD16F"/><use xlink:href="#icon-zoom" x="0" y="2825.5330000000004" width="441.62" height="440.688" style="fill:#FFE3A8"/><use xlink:href="#icon-zoom" x="0" y="3276.2210000000005" width="441.62" height="440.688" style="fill:#B9B9B9"/><use xlink:href="#icon-zoom" x="0" y="3726.909" width="441.62" height="440.688" style="fill:#111111"/><use xlink:href="#icon-zoom" x="0" y="4177.597" width="441.62" height="440.688" style="fill:#ffffff"/></svg>